<svg xmlns="http://www.w3.org/2000/svg" width="46.897" height="46.71" viewBox="0 0 46.897 46.71">
  <g id="brandmark" transform="translate(0 0)">
    <path id="j-green" d="M304.265,296.3l-.846-.846a10.411,10.411,0,0,1-2.632-10.338A6.229,6.229,0,0,1,302.1,272.8a6.344,6.344,0,0,1,6.2,5.263,10.157,10.157,0,0,1,9.68,2.725l.376.376-4.605,4.605-.376-.376a3.854,3.854,0,0,0-5.451,5.451l.846.846,4.605,4.605,4.887,4.887-4.605,4.605-4.887-4.887-4.511-4.605Z" transform="translate(-295.9 -272.8)" fill="#7ac143"/>
    <path id="j-orange" d="M310.4,291.227l4.887-4.887,4.605-4.605.846-.846a10.457,10.457,0,0,1,10.244-2.632,6.268,6.268,0,0,1,6.2-5.357,6.227,6.227,0,0,1,.752,12.406,10.291,10.291,0,0,1-2.632,10.15l-.376.376-4.511-4.605.376-.376a3.854,3.854,0,0,0-5.451-5.451l-.846.846-4.605,4.605-4.887,4.887-4.605-4.511Z" transform="translate(-296.773 -272.806)" fill="#f9a541"/>
    <path id="j-red" d="M331.814,315.337a10.366,10.366,0,0,1-10.338-2.538l-.376-.376,4.605-4.605.376.376a3.854,3.854,0,0,0,5.451-5.451l-.846-.846-4.605-4.605-4.887-4.887L325.8,287.8l4.887,4.887,4.605,4.605.94.94a10.328,10.328,0,0,1,2.725,9.774,6.268,6.268,0,0,1,5.357,6.2,6.2,6.2,0,0,1-6.2,6.2,6.386,6.386,0,0,1-6.3-5.075Z" transform="translate(-297.416 -273.703)" fill="#f44321"/>
    <path id="j-blue" d="M328.524,303.005l-4.887,4.887-4.605,4.605-.846.846a10.163,10.163,0,0,1-9.774,2.725,6.229,6.229,0,0,1-12.312-1.316,6.157,6.157,0,0,1,4.793-6.015,10.441,10.441,0,0,1,2.726-9.962l.376-.376,4.605,4.605-.376.376a3.854,3.854,0,1,0,5.451,5.451l.846-.846,4.605-4.605,4.887-4.887,4.511,4.511Z" transform="translate(-295.912 -274.34)" fill="#5091cd"/>
  </g>
</svg>
